<?xml version="1.0" encoding="UTF-8"?>
<svg width="200px" height="42px" viewBox="0 0 200 42" version="1.1" xmlns="http://www.w3.org/2000/svg" xmlns:xlink="http://www.w3.org/1999/xlink">
    <!-- Generator: sketchtool 61.1 (101010) - https://sketch.com -->
    <title>ACA63563-869E-43A7-A0C4-605AB4452BA4</title>
    <desc>Created with sketchtool.</desc>
    <g id="Website-landing-page" stroke="none" stroke-width="1" fill="none" fill-rule="evenodd">
        <g id="Product_regular-parking" transform="translate(-31.000000, -31.000000)" fill-rule="nonzero">
            <g id="logo1" transform="translate(130.500000, 51.500000) scale(1, -1) translate(-130.500000, -51.500000) translate(30.000000, 30.000000)">
                <g id="g456" transform="translate(26.772783, 0.448547)" fill="#515257">
                    <path d="M18.4380948,9.05714261 C17.1960377,7.85866645 15.7176377,7.26529503 14.0028949,7.26529503 C12.304914,7.26529503 10.8332188,7.85866645 9.59116166,9.05714261 C8.33234265,10.2656759 7.70377124,11.7055235 7.70377124,13.3716568 C7.70377124,14.4729139 7.99542837,15.4870091 8.57706645,16.4172948 C9.15870453,17.3425519 9.93645689,18.0817519 10.9136759,18.6332186 C11.8875426,19.1662471 12.9183997,19.4361138 14.0028949,19.4361138 C15.1192377,19.4361138 16.1567996,19.1662471 17.1155805,18.6332186 C18.0927995,18.0817519 18.8705519,17.3425519 19.45219,16.4172948 C20.0355043,15.4870091 20.3254852,14.4729139 20.3254852,13.3716568 C20.3254852,11.7055235 19.6952376,10.2656759 18.4380948,9.05714261 M26.7436184,18.5175614 C26.0195041,20.0563042 24.9953518,21.4257518 23.6745137,22.6208756 C22.4173709,23.785828 20.9389709,24.6809136 19.24099,25.3111612 C17.5413329,25.9397327 15.7947425,26.2548565 14.0028949,26.2548565 C12.1942854,26.2548565 10.447695,25.9313517 8.76647597,25.2893708 C7.08358078,24.6725327 5.60518081,23.785828 4.32959989,22.6208756 C3.04060945,21.4575994 2.02483804,20.089828 1.28731425,18.5175614 C0.548114272,16.9268567 0.177676186,15.2137901 0.177676186,13.3716568 C0.177676186,10.9361521 0.814628551,8.7252569 2.09020947,6.74232362 C3.3473523,4.79291414 5.04533321,3.25081894 7.18582839,2.11771421 C9.32464739,1.00304757 11.5958854,0.444876154 14.0028949,0.444876154 C15.8282663,0.444876154 17.5731805,0.770057099 19.24099,1.41203803 C19.4756567,1.48914279 19.8460947,1.63999993 20.3489519,1.85958088 L20.3489519,1.15222852 L27.8264374,1.08015233 L27.8499041,13.3716568 C27.8499041,15.2137901 27.4811422,16.9268567 26.7436184,18.5175614" id="path458"></path>
                </g>
                <g id="g460" transform="translate(68.562893, 27.955000)" fill="#515257">
                    <path d="M6.70476174,7.38095217 C6.10803794,7.72792359 5.44594272,7.90057121 4.72182845,7.90057121 C3.99939038,7.90057121 3.34567611,7.72792359 2.76571422,7.38095217 C2.18072376,7.03565694 1.70300948,6.55626648 1.32586663,5.94110459 C0.978895214,5.3427046 0.806247599,4.68396176 0.806247599,3.9598475 C0.806247599,3.25417132 0.985599975,2.58369515 1.35100949,1.95512374 C1.69462853,1.35672375 2.16563804,0.875657096 2.76571422,0.515276153 C3.34567611,0.168304733 3.99939038,-0.00434288203 4.72182845,-0.00434288203 C5.44594272,-0.00434288203 6.10803794,0.178361875 6.70476174,0.540419009 C7.30148553,0.902476143 7.77417123,1.37348565 8.12114265,1.95512374 C8.46643788,2.53676182 8.6390855,3.20388561 8.6390855,3.9598475 C8.6390855,4.68396176 8.46643788,5.3427046 8.12114265,5.94110459 C7.75740933,6.55626648 7.28639982,7.03565694 6.70476174,7.38095217" id="path462"></path>
                </g>
                <g id="g464" transform="translate(69.653087, 1.555183)" fill="#515257">
                    <polygon id="path466" points="0 0 7.52609505 0 7.52609505 24.1823994 0 24.1572565"></polygon>
                </g>
                <g id="g468" transform="translate(55.497811, 0.594391)" fill="#515257">
                    <path d="M10.733333,25.1428565 C3.78217131,24.7958851 0.305752348,21.1887233 0.305752348,14.3146663 L0.305752348,0.948723786 L7.85531406,0.948723786 L7.85531406,14.3146663 C7.85531406,16.9094091 8.81409499,18.2470091 10.733333,18.32579 L11.1574092,18.32579 C11.7859806,18.2922662 12.2972187,18.1430853 12.6894473,17.876571 L12.6894473,25.0020565 C12.1865901,25.0791613 11.6770283,25.1260946 11.1574092,25.1428565 L10.733333,25.1428565 Z" id="path470"></path>
                </g>
                <g id="g472" transform="translate(137.879219, 0.594391)" fill="#515257">
                    <path d="M10.733333,25.1428565 C3.78217131,24.7958851 0.305752348,21.1887233 0.305752348,14.3146663 L0.305752348,0.948723786 L7.85531406,0.948723786 L7.85531406,14.3146663 C7.85531406,16.9094091 8.81409499,18.2470091 10.733333,18.32579 L11.1574092,18.32579 C11.7859806,18.2922662 12.2972187,18.1430853 12.6894473,17.876571 L12.6894473,25.0020565 C12.1865901,25.0791613 11.6770283,25.1260946 11.1574092,25.1428565 L10.733333,25.1428565 Z" id="path474"></path>
                </g>
                <g id="g476" transform="translate(187.469145, 0.594391)" fill="#515257">
                    <path d="M10.733333,25.1428565 C3.78217131,24.7958851 0.305752348,21.1887233 0.305752348,14.3146663 L0.305752348,0.948723786 L7.85531406,0.948723786 L7.85531406,14.3146663 C7.85531406,16.9094091 8.81409499,18.2470091 10.733333,18.32579 L11.1574092,18.32579 C11.7876568,18.2922662 12.2972187,18.1430853 12.6894473,17.876571 L12.6894473,25.0020565 C12.1882663,25.0791613 11.6770283,25.1260946 11.1574092,25.1428565 L10.733333,25.1428565 Z" id="path478"></path>
                </g>
                <g id="g480" transform="translate(177.956444, 27.955000)" fill="#515257">
                    <path d="M6.70476174,7.38095217 C6.10636175,7.72792359 5.44594272,7.90057121 4.72350464,7.90057121 C3.99939038,7.90057121 3.34567611,7.72792359 2.76571422,7.38095217 C2.18239995,7.03565694 1.70300948,6.55626648 1.32586663,5.94110459 C0.978895214,5.3427046 0.806247599,4.68396176 0.806247599,3.9598475 C0.806247599,3.25417132 0.985599975,2.58369515 1.3493333,1.95512374 C1.69295234,1.35672375 2.16563804,0.875657096 2.76571422,0.515276153 C3.34567611,0.168304733 3.99939038,-0.00434288203 4.72350464,-0.00434288203 C5.44594272,-0.00434288203 6.10636175,0.178361875 6.70476174,0.540419009 C7.30148553,0.902476143 7.77417123,1.37348565 8.11946646,1.95512374 C8.46476169,2.53676182 8.6390855,3.20388561 8.6390855,3.9598475 C8.6390855,4.68396176 8.46476169,5.3427046 8.11946646,5.94110459 C7.75740933,6.55626648 7.28472363,7.03565694 6.70476174,7.38095217" id="path482"></path>
                </g>
                <g id="g484" transform="translate(150.907424, 1.594391)" fill="#515257">
                    <polygon id="path486" points="25.1428565 24.1428565 16.2975996 24.1428565 8.48822836 14.9891806 8.3926855 14.9891806 8.3926855 33.4842658 0.843123788 33.4607991 0.843123788 0.00739045101 8.3926855 0.00739045101 8.3926855 11.8496759 17.2647615 0.00739045101 26.678247 0.00739045101 16.4149329 13.7823234"></polygon>
                </g>
                <g id="g488" transform="translate(179.045800, 1.555183)" fill="#515257">
                    <polygon id="path490" points="0 0 7.52777124 0 7.52777124 24.1823994 0 24.1572565"></polygon>
                </g>
                <g id="g492" transform="translate(109.153353, 0.448547)" fill="#515257">
                    <path d="M18.4380948,9.05714261 C17.1960377,7.85866645 15.7176377,7.26529503 14.0028949,7.26529503 C12.3032378,7.26529503 10.8315426,7.85866645 9.59283786,9.05714261 C8.33234265,10.2656759 7.70544743,11.7055235 7.70544743,13.3716568 C7.70544743,14.4729139 7.99375218,15.4870091 8.57706645,16.4172948 C9.15870453,17.3425519 9.93645689,18.0817519 10.9153521,18.6332186 C11.8858664,19.1662471 12.9167235,19.4361138 14.0028949,19.4361138 C15.1209139,19.4361138 16.1567996,19.1662471 17.1172567,18.6332186 C18.0927995,18.0817519 18.8705519,17.3425519 19.4505138,16.4172948 C20.0338281,15.4870091 20.3254852,14.4729139 20.3254852,13.3716568 C20.3254852,11.7055235 19.6969138,10.2656759 18.4380948,9.05714261 M26.7436184,18.5175614 C26.0195041,20.0563042 24.9970279,21.4257518 23.6761899,22.6208756 C22.4173709,23.785828 20.9389709,24.6809136 19.24099,25.3111612 C17.5413329,25.9397327 15.7964187,26.2548565 14.0028949,26.2548565 C12.1942854,26.2548565 10.4493712,25.9313517 8.76479978,25.2893708 C7.08358078,24.6725327 5.60350462,23.785828 4.32959989,22.6208756 C3.04060945,21.4575994 2.02483804,20.089828 1.28899044,18.5175614 C0.546438082,16.9268567 0.177676186,15.2137901 0.177676186,13.3716568 C0.177676186,10.9361521 0.816304741,8.7252569 2.08853328,6.74232362 C3.3473523,4.79291414 5.04365702,3.25081894 7.1841522,2.11771421 C9.3229712,1.00304757 11.5958854,0.444876154 14.0028949,0.444876154 C15.8282663,0.444876154 17.5731805,0.770057099 19.24099,1.41203803 C19.4756567,1.48914279 19.8444186,1.63999993 20.3506281,1.85958088 L20.3506281,1.15222852 L27.8281136,1.08015233 L27.8515803,13.3716568 C27.8515803,15.2137901 27.4828184,16.9268567 26.7436184,18.5175614" id="path494"></path>
                </g>
                <g id="g496" transform="translate(0.837591, 0.486277)" fill="#515257">
                    <path d="M25.1428565,6.70476174 C24.2393899,8.10940932 23.6644566,9.62971404 23.3996185,11.2623235 L23.3795042,11.284114 C22.7509328,10.4963045 22.0737518,9.85935213 21.3496376,9.37325691 C19.9986281,8.44297122 18.5286091,7.98034266 16.9395805,7.98034266 C15.350552,7.98034266 13.880533,8.44297122 12.5278473,9.37325691 C11.1751616,10.3001902 10.0973712,11.5271616 9.29615215,13.0524949 C8.49325693,14.5945901 8.09264742,16.1970282 8.09264742,17.8648376 C8.09264742,19.5309709 8.48487598,21.1367614 9.27100929,22.6771804 C10.0739045,24.2025137 11.151695,25.4294851 12.5027044,26.3580946 C13.8889139,27.2850279 15.3656377,27.7493326 16.9395805,27.7493326 C18.5118472,27.7493326 19.9902471,27.2850279 21.3731042,26.3580946 C22.0033518,25.9491041 22.6570661,25.3439994 23.3325708,24.539428 L28.7366088,30.1328754 C27.6973707,31.264304 26.5173327,32.2398468 25.1964946,33.0578277 C22.6805328,34.6150087 19.9265519,35.392761 16.9395805,35.392761 C13.9660187,35.392761 11.213714,34.6150087 8.68266645,33.0578277 C6.13485699,31.4687992 4.12007609,29.3467421 2.64335231,26.6883041 C1.16327616,24.0147804 0.42407618,21.0730661 0.42407618,17.8648376 C0.42407618,14.6733711 1.16327616,11.7383616 2.64335231,9.06316168 C4.12007609,6.40639984 6.13485699,4.2927237 8.68266645,2.71878088 C11.213714,1.16159997 13.9660187,0.383847609 16.9395805,0.383847609 C19.9265519,0.383847609 22.6805328,1.16159997 25.1964946,2.71878088 C25.9139041,3.16464754 26.591085,3.66415229 27.2347422,4.20891418 C26.4385517,4.94979035 25.7395803,5.77950462 25.1428565,6.70476174" id="path498"></path>
                </g>
                <g id="g500" transform="translate(81.385582, 0.587854)" fill="#FCD205">
                    <path d="M15.0857139,16.7619043 C14.9817901,16.758552 14.8778663,16.7535234 14.7739425,16.7535234 C10.5382093,16.7535234 6.92266649,19.4019043 5.48617129,23.131428 C5.05874273,24.2410661 4.82239988,25.446247 4.82239988,26.7067422 C4.82239988,32.2012944 9.27771405,36.6582848 14.7739425,36.6582848 C20.2701709,36.6582848 24.7254851,32.2012944 24.7254851,26.7067422 C24.7254851,21.3144376 20.43779,16.9278472 15.0857139,16.7619043 M14.7739425,0.712380935 C14.7739425,0.712380935 12.9535997,9.60121881 20.4813709,13.1815616 C25.7513136,15.4075425 29.4489897,20.6255233 29.4489897,26.7067422 C29.4489897,34.8111229 22.8783232,41.3817894 14.7739425,41.3817894 C6.66956174,41.3817894 0.100571426,34.8111229 0.100571426,26.7067422 C0.100571426,26.7067422 -0.767695219,11.0980569 14.7739425,0.712380935" id="path502"></path>
                </g>
                <g id="g504" transform="translate(92.967555, 32.721933)" fill="#515257">
                    <path d="M3.77142845,2.09523801 C2.56624752,2.11367611 1.35436184,1.66780945 0.420723768,0.764342807 C0.316799961,0.663771381 0.31512377,0.497828528 0.415695196,0.39222853 C0.516266622,0.289980914 0.682209475,0.286628533 0.787809473,0.387199959 C1.61752374,1.19177137 2.69196181,1.58567612 3.76304749,1.57059041 C4.83916175,1.5538285 5.90689506,1.12975232 6.71649504,0.296685675 C6.81706646,0.191085678 6.98300932,0.189409488 7.08693312,0.289980914 C7.19085693,0.39055234 7.19420931,0.558171383 7.0919617,0.66209519 C6.18346648,1.59908564 4.97996175,2.07512373 3.77142845,2.09523801" id="path506"></path>
                </g>
                <g id="g508" transform="translate(94.613406, 30.710169)" fill="#515257">
                    <path d="M2.09523801,1.67619043 C1.51024755,1.68624758 0.920228517,1.4716952 0.4676571,1.03085712 C0.363733293,0.930285691 0.360380912,0.764342838 0.460952338,0.660419031 C0.563199954,0.556495224 0.729142807,0.553142843 0.833066614,0.65539046 C1.18339042,0.993980928 1.63596183,1.15824759 2.08685706,1.15321902 C2.53942848,1.14483807 2.98529513,0.96548569 3.32556179,0.615161889 C3.42613322,0.512914273 3.59375226,0.511238082 3.69767607,0.610133318 C3.80159987,0.712380935 3.80327606,0.876647597 3.70102845,0.982247594 C3.26354274,1.43314282 2.68022847,1.66780948 2.09523801,1.67619043" id="path510"></path>
                </g>
                <g id="g512" transform="translate(93.374366, 31.924737)" fill="#515257">
                    <path d="M3.35238087,1.67619043 C2.45729518,1.69127615 1.55382853,1.36274282 0.861561883,0.688914268 C0.757638076,0.588342842 0.754285695,0.422399989 0.854857121,0.316799992 C0.955428548,0.214552376 1.1213714,0.211199995 1.22529521,0.313447611 C1.81699043,0.885028549 2.58133327,1.16327616 3.34567611,1.15321902 C4.10834275,1.1398095 4.86262845,0.838095217 5.43756177,0.246399994 C5.53813319,0.144152377 5.70407605,0.140799996 5.80799985,0.243047613 C5.91192366,0.343619039 5.91527604,0.509561892 5.81302843,0.611809509 C5.14087606,1.30575235 4.24746656,1.66278091 3.35238087,1.67619043" id="path514"></path>
                </g>
                <g id="g516" transform="translate(92.394633, 19.541545)" fill="#515257">
                    <path d="M5.0285713,6.70476174 C4.7838475,6.51702841 4.4335237,6.42148555 3.97927609,6.42148555 L3.27024754,6.42148555 L3.27024754,8.58377121 L3.97927609,8.58377121 C4.4335237,8.58377121 4.7838475,8.48990455 5.0285713,8.30719979 C5.26994273,8.12281884 5.39062844,7.85798076 5.39062844,7.51268553 C5.39062844,7.15900934 5.26994273,6.88914268 5.0285713,6.70476174 M7.57302838,9.03801882 C7.38361886,9.45874262 7.1137522,9.79062833 6.76510459,10.0353521 C6.41478079,10.2817521 5.99908556,10.4560759 5.51801891,10.5599997 C5.04533321,10.6639235 4.47375227,10.7175616 3.8032761,10.7175616 L0.797866647,10.7175616 L0.797866647,0.662095222 L3.27024754,0.662095222 L3.27024754,4.28937132 L4.13683799,4.28937132 C4.63634274,4.28937132 5.12076178,4.36479989 5.58841891,4.51565703 C6.0460189,4.6614856 6.44495222,4.87771416 6.78521888,5.16099035 C7.12213316,5.43923796 7.38361886,5.77447605 7.57302838,6.16670461 C7.7624379,6.55893317 7.85630457,7.00479982 7.85630457,7.499276 C7.85630457,8.10438075 7.7624379,8.61729502 7.57302838,9.03801882" id="path518"></path>
                </g>
            </g>
        </g>
    </g>
</svg>